<svg width="103" height="120" viewBox="0 0 103 120" fill="none" xmlns="http://www.w3.org/2000/svg">
<g clip-path="url(#clip0)">
<path d="M25.8038 43.7394C25.8038 44.2461 25.8834 44.7388 26.059 45.2014L25.8038 45.2943H24.2518H19.4061V31.4559H25.8015V43.7394H25.8038Z" fill="#D7E9FF"/>
<path d="M71.2643 42.9446C73.7363 42.9446 79.3569 45.1572 80.1059 42.9446L77.7182 63.4488H79.5348C78.8231 74.0868 72.1188 83.0862 62.7364 87.1559C59.2906 88.6434 55.5077 89.4801 51.5 89.4801C47.4924 89.4801 43.7095 88.6434 40.2637 87.1559C30.8813 83.1024 24.1769 74.0868 23.4653 63.4488H25.2818L23.4091 44.3786C24.1559 46.589 27.5923 42.9446 30.0643 42.9446H71.2643Z" fill="#F2D1A0"/>
<path d="M79.0689 45.4175L78.7692 45.3059C78.0225 47.5162 75.9227 49.1176 73.4507 49.1176H72.8818C76.8848 63.4674 63.5112 83.5672 55.2407 87.1558C52.8928 88.1692 50.3763 88.8525 47.7545 89.2034C48.9812 89.3661 50.2265 89.48 51.5047 89.48C55.5123 89.48 59.2952 88.6433 62.741 87.1558C72.1234 83.0861 82.4983 59.1211 80.8877 45.4175H79.0689Z" fill="#EA965E"/>
<path d="M29.0273 96.9361L51.5 111.792V117.352H14.0455V108.074C14.0455 104.766 15.4875 101.808 17.7909 99.7623C19.776 97.9959 22.3978 96.9175 25.2818 96.9175H29.0273V96.9361Z" fill="#F8B239"/>
<path d="M62.7364 87.1558V96.9175L51.5 104.336L40.2637 96.9175V87.1558C43.7095 88.6433 47.4924 89.48 51.5 89.48C55.5077 89.48 59.2906 88.6433 62.7364 87.1558Z" fill="#F2D1A0"/>
<path d="M77.7182 96.9175C80.6022 96.9175 83.224 97.9959 85.2091 99.7623C87.5126 101.808 88.9546 104.764 88.9546 108.074V117.352H51.5V111.792L73.9727 96.9361V96.9175H77.7182Z" fill="#F8B239"/>
<path d="M73.9727 96.9175V96.9361L51.5 111.792L29.0273 96.9361V96.9175H40.2636L51.5 104.336L62.7364 96.9175H73.9727Z" fill="white"/>
<path d="M39.463 86.7933V95.6741H28.627H25.0149C22.2339 95.6741 19.7058 97.2244 17.7909 99.7624V47.5907H23.2639C23.9498 62.8724 30.4154 80.9711 39.463 86.7933Z" fill="#FC802D"/>
<path d="M86.1736 45.7313L85.2091 99.7624C83.224 97.996 80.6022 96.9176 77.7182 96.9176H73.9727H62.7364V87.1559C72.1187 83.0862 82.8542 69.9543 80.4992 45.7313H86.1736Z" fill="#FC802D"/>
<path d="M17.7909 46.7143C17.7909 28.2136 32.8851 13.2456 51.5 13.2456C70.1149 13.2456 85.2091 28.2136 85.2091 46.7143H77.7182V46.6958C77.7182 43.6278 75.19 41.1176 72.1 41.1176H30.9C27.81 41.1176 25.2818 43.6278 25.2818 46.6958V46.7143H17.7909Z" fill="#F8B239"/>
<path d="M85.2091 46.7144C85.2091 28.2136 70.1149 13.2456 51.5 13.2456C50.2312 13.2456 48.9835 13.3293 47.7499 13.4641C64.5412 15.3095 77.6082 29.378 77.6995 46.5377C77.7018 46.5912 77.7158 46.6446 77.7158 46.6981V46.7167L85.2091 46.7144Z" fill="#FC802D"/>
<path d="M76.8825 29.5059V44.3623C76.8825 44.9759 76.7888 45.5709 76.5828 46.1287C75.8361 48.339 73.7363 49.9404 71.2643 49.9404H30.0643C27.5923 49.9404 25.4948 48.3414 24.7457 46.1287C24.5397 45.5709 24.4461 44.9759 24.4461 44.3623V29.5059V29.4873C24.4461 26.4193 26.9743 23.9092 30.0643 23.9092H71.2643C74.3543 23.9092 76.8825 26.4193 76.8825 29.4873V29.5059Z" fill="#F8B239"/>
<path d="M14.0454 109.928C13.0107 109.928 12.1727 109.096 12.1727 108.069C12.1727 100.89 18.0554 95.0488 25.2864 95.0488C26.3211 95.0488 27.1592 95.8809 27.1592 96.9082C27.1592 97.9355 26.3211 98.7676 25.2864 98.7676C20.1224 98.7676 15.9181 102.94 15.9181 108.069C15.9181 109.096 15.0824 109.928 14.0454 109.928Z" fill="#FC802D"/>
<path d="M88.9545 109.928C87.9199 109.928 87.0818 109.096 87.0818 108.069C87.0818 102.942 82.8822 98.7722 77.7182 98.7722C76.6835 98.7722 75.8455 97.9401 75.8455 96.9128C75.8455 95.8855 76.6835 95.0535 77.7182 95.0535C84.9446 95.0535 90.8273 100.894 90.8273 108.069C90.8273 109.096 89.9916 109.928 88.9545 109.928Z" fill="#FC802D"/>
<path d="M40.2636 98.7722L25.2865 98.7676C24.2518 98.7676 23.4138 97.9355 23.4138 96.9082C23.4138 95.8809 24.2518 95.0488 25.2865 95.0488L40.2636 95.0535C41.2983 95.0535 42.1363 95.8855 42.1363 96.9128C42.1363 97.9401 41.2983 98.7722 40.2636 98.7722Z" fill="#FC802D"/>
<path d="M77.7181 98.7722L62.7363 98.7676C61.7016 98.7676 60.8636 97.9355 60.8636 96.9082C60.8636 95.8809 61.7016 95.0488 62.7363 95.0488L77.7181 95.0535C78.7528 95.0535 79.5909 95.8855 79.5909 96.9128C79.5909 97.9401 78.7528 98.7722 77.7181 98.7722Z" fill="#FC802D"/>
<path d="M14.0477 119.214C13.0131 119.214 12.175 118.382 12.175 117.354L12.1727 108.069C12.1727 107.042 13.0107 106.21 14.0454 106.21C15.0801 106.21 15.9181 107.042 15.9181 108.069L15.9205 117.354C15.9205 118.382 15.0848 119.214 14.0477 119.214Z" fill="#FC802D"/>
<path d="M88.9545 119.214C87.9198 119.214 87.0818 118.382 87.0818 117.354V108.069C87.0818 107.042 87.9198 106.21 88.9545 106.21C89.9892 106.21 90.8272 107.042 90.8272 108.069V117.354C90.8272 118.382 89.9915 119.214 88.9545 119.214Z" fill="#FC802D"/>
<path d="M40.2636 98.7722C39.2289 98.7722 38.3909 97.9401 38.3909 96.9128V87.1511C38.3909 86.1238 39.2289 85.2917 40.2636 85.2917C41.2983 85.2917 42.1363 86.1238 42.1363 87.1511V96.9128C42.1363 97.9401 41.3006 98.7722 40.2636 98.7722Z" fill="#FC802D"/>
<path d="M62.7363 98.7676C61.7016 98.7676 60.8636 97.9355 60.8636 96.9082V87.1511C60.8636 86.1238 61.7016 85.2917 62.7363 85.2917C63.771 85.2917 64.609 86.1238 64.609 87.1511V96.9082C64.609 97.9378 63.7733 98.7676 62.7363 98.7676Z" fill="#FC802D"/>
<path d="M51.4999 91.3302C35.7737 91.3302 19.6636 74.9398 21.541 45.8615C21.4731 44.8342 22.255 43.951 23.2873 43.8836C24.2869 43.8394 25.2115 44.5924 25.2794 45.6174C22.5288 70.6679 37.7377 87.6114 51.4999 87.6114C65.2715 87.6114 82.023 68.2925 77.6011 45.6081C77.669 44.5808 78.5491 43.8371 79.5908 43.8743C80.6232 43.9417 81.405 44.8272 81.3372 45.8498C85.8434 71.9717 67.2379 91.3302 51.4999 91.3302Z" fill="#FC802D"/>
<path d="M85.2091 48.5645C84.1744 48.5645 83.3363 47.7324 83.3363 46.7051C83.3363 29.2758 69.0544 15.0957 51.5 15.0957C33.9455 15.0957 19.6636 29.2758 19.6636 46.7051C19.6636 47.7324 18.8256 48.5645 17.7909 48.5645C16.7562 48.5645 15.9182 47.7324 15.9182 46.7051C15.9182 27.2235 31.8785 11.377 51.5 11.377C71.1215 11.377 87.0818 27.2235 87.0818 46.7051C87.0818 47.7347 86.2461 48.5645 85.2091 48.5645Z" fill="#FC802D"/>
<path d="M96.4524 48.5645C95.4178 48.5645 94.5797 47.7324 94.5797 46.7051C94.5797 23.1189 75.2555 3.9325 51.5 3.9325C27.7444 3.9325 8.42258 23.1189 8.42258 46.7051C8.42258 47.7324 7.58453 48.5645 6.54985 48.5645C5.51517 48.5645 4.67712 47.7324 4.67712 46.7051C4.67712 21.0713 25.6821 0.213745 51.5 0.213745C77.3179 0.213745 98.3228 21.0713 98.3228 46.7051C98.3252 47.7347 97.4871 48.5645 96.4524 48.5645Z" fill="#FC802D"/>
<path d="M17.7909 101.61C16.7562 101.61 15.9182 100.778 15.9182 99.7507V46.7051C15.9182 45.6778 16.7562 44.8457 17.7909 44.8457C18.8256 44.8457 19.6636 45.6778 19.6636 46.7051V99.7507C19.6636 100.78 18.8279 101.61 17.7909 101.61Z" fill="#FC802D"/>
<path d="M85.209 101.615C84.1744 101.615 83.3363 100.783 83.3363 99.7554V46.7051C83.3363 45.6778 84.1744 44.8457 85.209 44.8457C86.2437 44.8457 87.0818 45.6778 87.0818 46.7051V99.7554C87.0818 100.783 86.2461 101.615 85.209 101.615Z" fill="#FC802D"/>
<path d="M51.5 106.193C51.1442 106.193 50.7837 106.094 50.4653 105.882L39.229 98.4585C38.3675 97.8867 38.1334 96.7339 38.7069 95.8786C39.2828 95.0186 40.4439 94.7908 41.3053 95.3603L52.5417 102.784C53.4032 103.356 53.6372 104.508 53.0637 105.364C52.6985 105.905 52.104 106.193 51.5 106.193Z" fill="#FC802D"/>
<path d="M51.5023 106.193C50.8984 106.193 50.3014 105.903 49.9409 105.364C49.3674 104.508 49.6015 103.356 50.463 102.784L61.6993 95.3603C62.5561 94.7908 63.7195 95.0209 64.2977 95.8786C64.8713 96.7339 64.6372 97.8867 63.7757 98.4585L52.5394 105.882C52.221 106.094 51.8581 106.193 51.5023 106.193Z" fill="#FC802D"/>
<path d="M51.5 113.643C51.1442 113.643 50.7837 113.543 50.4653 113.331L27.9926 98.4863C27.1311 97.9146 26.897 96.7618 27.4705 95.9064C28.0464 95.0465 29.2075 94.8164 30.069 95.3881L52.5417 110.233C53.4031 110.805 53.6372 111.958 53.0637 112.813C52.6985 113.352 52.1039 113.643 51.5 113.643Z" fill="#FC802D"/>
<path d="M51.5023 113.643C50.8983 113.643 50.3014 113.352 49.9433 112.813C49.3674 111.96 49.6015 110.805 50.4629 110.235L72.9357 95.3859C73.7924 94.8095 74.9582 95.0466 75.5317 95.9019C76.1076 96.7549 75.8735 97.91 75.0121 98.4795L52.5393 113.329C52.221 113.543 51.8581 113.643 51.5023 113.643Z" fill="#FC802D"/>
<path d="M96.4501 48.5645C96.0264 48.5645 95.6027 48.4227 95.2516 48.1322L89.6287 43.4768C88.8352 42.819 88.7275 41.6499 89.39 40.8597C90.0501 40.0741 91.2276 39.9625 92.0258 40.6226L97.6487 45.278C98.4423 45.9358 98.5499 47.1049 97.8875 47.8951C97.5199 48.339 96.9886 48.5645 96.4501 48.5645Z" fill="#FC802D"/>
<path d="M96.4501 48.5645C96.0287 48.5645 95.605 48.4227 95.2539 48.1345C94.4603 47.4791 94.3503 46.3077 95.0128 45.5175L99.6899 39.9324C100.35 39.1468 101.528 39.0352 102.326 39.693C103.119 40.3484 103.229 41.5198 102.567 42.31L97.8898 47.8951C97.5222 48.3367 96.9885 48.5645 96.4501 48.5645Z" fill="#FC802D"/>
<path d="M6.55223 48.5645C6.01382 48.5645 5.48243 48.3367 5.11023 47.8951C4.44775 47.1072 4.55543 45.9334 5.35134 45.278L10.9742 40.6249C11.7701 39.9672 12.9476 40.0718 13.6101 40.8643C14.2725 41.6522 14.1649 42.826 13.369 43.4814L7.74609 48.1345C7.3973 48.4227 6.97593 48.5645 6.55223 48.5645Z" fill="#FC802D"/>
<path d="M6.55221 48.5645C6.0138 48.5645 5.48007 48.3367 5.11021 47.8951L0.433074 42.31C-0.229403 41.5198 -0.11938 40.3461 0.674188 39.693C1.47478 39.0352 2.6546 39.1468 3.31005 39.9324L7.98719 45.5175C8.64966 46.3077 8.53964 47.4814 7.74607 48.1345C7.39728 48.4227 6.97357 48.5645 6.55221 48.5645Z" fill="#FC802D"/>
<path d="M67.4205 38.2938H35.5841C34.5494 38.2938 33.7114 37.4618 33.7114 36.4344C33.7114 35.4071 34.5494 34.5751 35.5841 34.5751H67.4205C68.4552 34.5751 69.2932 35.4071 69.2932 36.4344C69.2932 37.4618 68.4575 38.2938 67.4205 38.2938Z" fill="#FC802D"/>
<path d="M72.1023 51.3093H30.9C26.7683 51.3093 23.4091 47.9741 23.4091 43.8718V28.9968C23.4091 24.8946 26.7683 21.5593 30.9 21.5593H72.1046C76.2363 21.5593 79.5956 24.8946 79.5956 28.9968V43.8718C79.5932 47.9741 76.234 51.3093 72.1023 51.3093ZM30.9 25.2781C28.8353 25.2781 27.1545 26.9469 27.1545 28.9968V43.8718C27.1545 45.9218 28.8353 47.5906 30.9 47.5906H72.1046C74.1693 47.5906 75.8501 45.9218 75.8501 43.8718V28.9968C75.8501 26.9469 74.1693 25.2781 72.1046 25.2781H30.9Z" fill="#FC802D"/>
<path d="M79.4622 44.8016H78.2215L78.0178 44.7179C78.1583 44.3019 78.2215 43.8579 78.2215 43.4024V32.3322H83.3364V44.8016H79.4622Z" fill="#E8A042"/>
<path d="M19.6636 45.3059V32.3322H25.1741V43.8486C25.1741 44.3251 25.242 44.7853 25.3942 45.2176L25.1741 45.3036H23.8375L19.6636 45.3059Z" fill="#E8A042"/>
<path d="M85.0616 46.6633H77.5684C76.5337 46.6633 75.6957 45.8313 75.6957 44.804C75.6957 43.7767 76.5337 42.9446 77.5684 42.9446H85.0616C86.0963 42.9446 86.9344 43.7767 86.9344 44.804C86.9344 45.8313 86.0963 46.6633 85.0616 46.6633Z" fill="#FC802D"/>
<path d="M25.2841 47.5907H17.7909C16.7562 47.5907 15.9182 46.7586 15.9182 45.7313C15.9182 44.704 16.7562 43.8719 17.7909 43.8719H25.2841C26.3188 43.8719 27.1569 44.704 27.1569 45.7313C27.1569 46.7586 26.3212 47.5907 25.2841 47.5907Z" fill="#FC802D"/>
</g>
<defs>
<clipPath id="clip0">
<rect y="0.213745" width="103" height="119" fill="white"/>
</clipPath>
</defs>
</svg>
