<svg width="102" height="102" viewBox="0 0 102 102" fill="none" xmlns="http://www.w3.org/2000/svg">
<g clip-path="url(#clip0)">
<path d="M43.8281 0H3.98438C1.78301 0 0 1.78301 0 3.98438V43.8281C0 46.0295 1.78301 47.8125 3.98438 47.8125H43.8281C46.0295 47.8125 47.8125 46.0295 47.8125 43.8281V3.98438C47.8125 1.78301 46.0295 0 43.8281 0ZM39.8438 39.8438H7.96875V7.96875H39.8438V39.8438ZM99.5416 54.4903C98.0535 53.8727 96.3382 54.2134 95.1987 55.3529L55.3549 95.1967C54.2154 96.3362 53.8747 98.0495 54.4903 99.5396C55.1079 101.03 56.5602 102 58.1719 102H98.0156C100.217 102 102 100.217 102 98.0156V58.1719C102 56.5602 101.03 55.1079 99.5416 54.4903ZM94.0312 94.0312H67.7922L94.0312 67.7922V94.0312ZM78.0938 47.8125C91.2761 47.8125 102 37.0886 102 23.9062C102 10.7239 91.2761 0 78.0938 0C64.9114 0 54.1875 10.7239 54.1875 23.9062C54.1875 37.0886 64.9114 47.8125 78.0938 47.8125ZM78.0938 7.96875C86.8813 7.96875 94.0312 15.1187 94.0312 23.9062C94.0312 32.6938 86.8813 39.8438 78.0938 39.8438C69.3062 39.8438 62.1562 32.6938 62.1562 23.9062C62.1562 15.1187 69.3062 7.96875 78.0938 7.96875ZM46.6451 60.9888L29.5421 78.0938L46.6471 95.1987C48.203 96.7546 48.203 99.2787 46.6471 100.835C45.0912 102.39 42.5691 102.39 41.0132 100.835L23.9062 83.7297L6.80133 100.835C5.24543 102.39 2.72332 102.39 1.16742 100.835C-0.388477 99.2787 -0.388477 96.7546 1.16742 95.1987L18.2704 78.0938L1.16742 60.9888C-0.388477 59.4329 -0.388477 56.9088 1.16742 55.3529C2.72332 53.797 5.24543 53.797 6.80133 55.3529L23.9062 72.4578L41.0112 55.3529C42.5671 53.797 45.0892 53.797 46.6451 55.3529C48.201 56.9108 48.201 59.4329 46.6451 60.9888Z" fill="#F8B239"/>
</g>
<defs>
<clipPath id="clip0">
<rect width="102" height="102" fill="white"/>
</clipPath>
</defs>
</svg>
