<svg width="112" height="108" viewBox="0 0 112 108" fill="none" xmlns="http://www.w3.org/2000/svg">
<path d="M111.783 59.197C110.777 49.036 106.26 39.4573 99.0587 32.2233C92.9053 26.0419 85.3737 22.0711 77.4506 20.3044V14.7207C80.6881 13.912 83.0922 10.9696 83.0922 7.47131C83.0922 3.3511 79.7562 0 75.6547 0H59.9047C55.8031 0 52.4672 3.3511 52.4672 7.47131C52.4672 10.9696 54.8734 13.912 58.1088 14.7207V20.3198C50.2075 22.0931 42.7022 26.0595 36.5662 32.2233C35.2231 33.5726 33.985 34.9877 32.8519 36.4578C32.7972 36.4534 32.7425 36.449 32.6856 36.449H17.0997C15.8922 36.449 14.9122 37.4335 14.9122 38.6465C14.9122 39.8594 15.8922 40.8439 17.0997 40.8439H29.8769C28.2734 43.5424 26.9806 46.3749 25.9963 49.2909H2.1875C0.98 49.2909 0 50.2753 0 51.4883C0 52.7013 0.98 53.6858 2.1875 53.6858H24.7603C24.1303 56.4655 23.7672 59.2958 23.6753 62.1327H14C12.7925 62.1327 11.8125 63.1172 11.8125 64.3302C11.8125 65.5432 12.7925 66.5276 14 66.5276H23.7431C23.9269 69.3711 24.3841 72.2014 25.1081 74.9746H10.9375C9.73 74.9746 8.75 75.9591 8.75 77.1721C8.75 78.385 9.73 79.3695 10.9375 79.3695H26.5059C28.6519 85.0719 32.0053 90.4161 36.5684 94.9999C43.7762 102.241 53.3203 106.78 63.4463 107.785C64.8922 107.927 66.3381 108 67.7819 108C76.3175 108 84.7459 105.519 91.8969 100.841C92.9097 100.179 93.1963 98.8169 92.5356 97.7995C91.8772 96.782 90.5209 96.4942 89.5081 97.1578C73.8544 107.398 52.8916 105.183 39.6616 91.8927C24.1391 76.2997 24.1391 50.9258 39.6616 35.3327C55.1841 19.7396 80.4431 19.7396 95.9656 35.3327C109.178 48.6053 111.394 69.6458 101.235 85.3641C100.577 86.3815 100.866 87.744 101.878 88.4032C102.891 89.0646 104.247 88.7746 104.904 87.7571C110.331 79.3585 112.777 69.2151 111.783 59.197ZM56.8422 7.47131C56.8422 5.77488 58.2159 4.39489 59.9047 4.39489H75.6547C77.3434 4.39489 78.7172 5.77488 78.7172 7.47131C78.7172 9.16774 77.3434 10.5477 75.6547 10.5477H75.2631H60.2984H59.9069C58.2159 10.5477 56.8422 9.16774 56.8422 7.47131ZM62.4859 19.566V14.9426H73.0756V19.5573C69.5581 19.1375 66.0013 19.1397 62.4859 19.566Z" fill="#F8B239"/>
<path d="M97.5144 91.2467C96.9369 91.2467 96.3747 91.4818 95.9678 91.8906C95.5587 92.2993 95.3269 92.8662 95.3269 93.4441C95.3269 94.0221 95.5587 94.589 95.9678 94.9977C96.3747 95.4087 96.9369 95.6416 97.5144 95.6416C98.0897 95.6416 98.6519 95.4087 99.0609 94.9977C99.4678 94.589 99.7019 94.0221 99.7019 93.4441C99.7019 92.8662 99.4678 92.2993 99.0609 91.8906C98.6519 91.4818 98.0897 91.2467 97.5144 91.2467Z" fill="#F8B239"/>
<path d="M67.8147 29.5227C49.1028 29.5227 33.88 44.8147 33.88 63.6117C33.88 82.4086 49.1028 97.7006 67.8147 97.7006C86.5266 97.7006 101.749 82.4086 101.749 63.6117C101.749 44.8147 86.5266 29.5227 67.8147 29.5227ZM67.8147 93.3057C51.5156 93.3057 38.255 79.9848 38.255 63.6117C38.255 47.2385 51.5156 33.9176 67.8147 33.9176C84.1138 33.9176 97.3744 47.2385 97.3744 63.6117C97.3744 79.9848 84.1138 93.3057 67.8147 93.3057Z" fill="#F8B239"/>
<path d="M81.6507 46.6033L70.816 57.4873C69.9103 57.0368 68.891 56.7819 67.8125 56.7819C66.7341 56.7819 65.7169 57.0368 64.8091 57.4873L59.9594 52.6155C59.1041 51.7563 57.7194 51.7563 56.8663 52.6155C56.011 53.4747 56.011 54.8657 56.8663 55.7227L61.716 60.5945C61.2675 61.5042 61.0138 62.5282 61.0138 63.6116C61.0138 67.3758 64.0632 70.439 67.8103 70.439C71.5597 70.439 74.6069 67.3758 74.6069 63.6116C74.6069 62.5282 74.3532 61.5064 73.9047 60.5945L84.4222 50.0291L84.7394 49.7105C85.5947 48.8513 85.5947 47.4603 84.7394 46.6033C83.8841 45.7463 82.506 45.7463 81.6507 46.6033ZM67.8147 66.0441C66.4782 66.0441 65.3932 64.952 65.3932 63.6116C65.3932 62.2711 66.4803 61.179 67.8147 61.179C69.1491 61.179 70.2363 62.2711 70.2363 63.6116C70.2363 64.952 69.1491 66.0441 67.8147 66.0441Z" fill="#F8B239"/>
<path d="M91.2034 61.4406H89.1756C87.9681 61.4406 86.9881 62.425 86.9881 63.638C86.9881 64.851 87.9681 65.8354 89.1756 65.8354H91.2034C92.4109 65.8354 93.3909 64.851 93.3909 63.638C93.3909 62.425 92.4109 61.4406 91.2034 61.4406Z" fill="#F8B239"/>
<path d="M46.4516 61.3878H44.426C43.2185 61.3878 42.2385 62.3723 42.2385 63.5853C42.2385 64.7983 43.2185 65.7827 44.426 65.7827H46.4516C47.6591 65.7827 48.6391 64.7983 48.6391 63.5853C48.6391 62.3723 47.6591 61.3878 46.4516 61.3878Z" fill="#F8B239"/>
<path d="M67.8409 44.3488C69.0484 44.3488 70.0284 43.3643 70.0284 42.1513V40.1165C70.0284 38.9035 69.0484 37.9191 67.8409 37.9191C66.6334 37.9191 65.6534 38.9035 65.6534 40.1165V42.1513C65.6534 43.3665 66.6334 44.3488 67.8409 44.3488Z" fill="#F8B239"/>
<path d="M67.7863 82.8744C66.5788 82.8744 65.5988 83.8588 65.5988 85.0718V87.1067C65.5988 88.3197 66.5788 89.3041 67.7863 89.3041C68.9938 89.3041 69.9738 88.3197 69.9738 87.1067V85.0718C69.9738 83.8566 68.9959 82.8744 67.7863 82.8744Z" fill="#F8B239"/>
<path d="M2.1875 74.9724C1.61219 74.9724 1.04781 75.2075 0.640938 75.6163C0.234063 76.025 0 76.5919 0 77.1699C0 77.75 0.234063 78.3147 0.640938 78.7235C1.04781 79.1322 1.61219 79.3673 2.1875 79.3673C2.76281 79.3673 3.32719 79.1322 3.73406 78.7235C4.14094 78.3147 4.375 77.7478 4.375 77.1699C4.375 76.5919 4.14094 76.025 3.73406 75.6163C3.32719 75.2075 2.76281 74.9724 2.1875 74.9724Z" fill="#F8B239"/>
</svg>
